<!DOCTYPE svg PUBLIC "-//W3C//DTD SVG 1.1//EN" "http://www.w3.org/Graphics/SVG/1.1/DTD/svg11.dtd">
<!-- Uploaded to: SVG Repo, www.svgrepo.com, Transformed by: SVG Repo Mixer Tools -->
<svg height="72px" width="72px" version="1.1" id="Layer_1" xmlns="http://www.w3.org/2000/svg" xmlns:xlink="http://www.w3.org/1999/xlink" viewBox="0 0 480 480" xml:space="preserve" fill="#000000">
<g id="SVGRepo_bgCarrier" stroke-width="0"/>
<g id="SVGRepo_tracerCarrier" stroke-linecap="round" stroke-linejoin="round"/>
<g id="SVGRepo_iconCarrier"> <path style="fill:#BD8931;" d="M328,472H8v-32h228.4c28.432,0,56.224,8.416,79.88,24.184L328,472z"/> <circle style="fill:#E65039;" cx="368" cy="320" r="40"/> <path style="fill:#EB7361;" d="M368,280c-15.176,0-28.216,8.552-35,21c5.68-3.088,12.088-5,19-5c22.088,0,40,17.912,40,40 c0,6.912-1.912,13.32-5,19c12.448-6.784,21-19.824,21-35C408,297.912,390.088,280,368,280z"/> <path style="fill:#FCB641;" d="M382.28,150.432l-25-14.432H456c0-26.512-21.488-48-48-48h-60.864l83.136-48 c-13.256-22.96-42.608-30.824-65.568-17.568L288,66.72V8c-26.512,0-48,21.488-48,48v11.648l-83.144-45.216 C133.896,9.176,104.536,17.04,91.288,40l83.136,48H113.56c-26.512,0-48,24-48,48h98.72l-24.992,14.432 c-26.4,15.24-48,52.656-48,83.136l0,0l173.208-77.68c4.696-2.432,10.272-2.4,14.936,0.104 C311.72,173.384,430.28,233.56,430.28,233.56l0,0C430.28,203.088,408.68,165.672,382.28,150.432z"/> <g> <path style="fill:#FDC567;" d="M139.28,174.432l25-14.432h-37.912c-20.168,18.208-35.08,48.256-35.08,73.568l0,0l4.576-2.056 C103.544,208.224,120.128,185.488,139.28,174.432z"/> <path style="fill:#FDC567;" d="M288,90.72l76.704-44.288c16.496-9.528,36.28-8.096,51.032,1.96L430.28,40 c-13.256-22.96-42.608-30.824-65.568-17.568L288,66.72V90.72z"/> <path style="fill:#FDC567;" d="M388.712,88l-41.568,24H408c17.76,0,33.224,9.664,41.528,24H456c0-26.512-21.488-48-48-48H388.712z"/> <path style="fill:#FDC567;" d="M395.2,160h-37.92l24.992,14.432c19.064,11.008,35.576,33.584,43.312,56.76 c2.984,1.512,4.688,2.384,4.688,2.384l0,0C430.28,208.256,415.368,178.208,395.2,160z"/> <path style="fill:#FDC567;" d="M156.856,46.432L240,91.648V80c0-26.512,21.488-48,48-48V8c-26.512,0-48,21.488-48,48v11.648 l-83.144-45.216C133.896,9.176,104.536,17.04,91.288,40l14.536,8.392C120.576,38.336,140.352,36.904,156.856,46.432z"/> <path style="fill:#FDC567;" d="M113.56,112h60.864l-41.568-24H113.56c-26.512,0-48,24-48,48h7.144 C81.16,122.24,96.272,112,113.56,112z"/> </g> <path style="fill:#D7B883;" d="M8,376c0,0,217-97,248-216l16-4l24,12c0,0-101,236-248,272H8V376z"/> <path d="M332.44,465.344l-11.72-7.816C295.664,440.832,266.504,432,236.4,432H91.832c48.448-24.392,96.016-70.2,141.888-136.968 c3.904-5.688,7.616-11.32,11.232-16.904c0.224-0.184,0.496-0.264,0.704-0.472c1.04-1.04,1.608-2.32,1.952-3.656 c28.416-44.544,47.168-83.92,53.4-97.616c46.328,24.056,124.672,63.832,125.64,64.32c1.144,0.576,2.384,0.864,3.624,0.864 c1.456,0,2.904-0.392,4.184-1.184c2.368-1.456,3.816-4.032,3.816-6.816c0-32.784-22.864-72.712-51.152-89.568H456 c4.416,0,8-3.584,8-8c0-30.88-25.12-56-56-56h-31l57.28-33.072c3.832-2.208,5.136-7.104,2.928-10.928 c-15.44-26.736-49.76-35.944-76.496-20.496L296,52.864V8c0-4.416-3.584-8-8-8c-30.28,0-55.024,24.152-55.976,54.208l-71.176-38.704 C134.104,0.064,99.8,9.264,84.352,36c-2.208,3.832-0.896,8.72,2.928,10.928L144.568,80h-31c-29.832,0-56,26.168-56,56 c0,4.416,3.584,8,8,8h68.872c-28.28,16.848-51.152,56.784-51.152,89.568c0,2.712,1.376,5.24,3.656,6.712 c2.288,1.48,5.152,1.704,7.624,0.584L242.56,174.48C198.32,280.984,6.768,367.792,4.736,368.696C1.856,369.984,0,372.84,0,376v64v32 c0,4.416,3.584,8,8,8h320c3.52,0,6.64-2.312,7.656-5.68C336.68,470.944,335.368,467.304,332.44,465.344z M114.72,326.152 l36.024,43.232c-14.104,13.456-29.048,25.696-44.76,35.928l-38.168-50.896C82.104,346.424,98.112,336.936,114.72,326.152z M165.552,289.744l26.992,33.736c-9.544,11.904-19.696,23.552-30.392,34.6l-34.024-40.824 C140.624,308.744,153.248,299.536,165.552,289.744z M241.8,209.848l19.392,9.696c-6.608,11.992-14.32,25.288-23.064,39.272 l-19.136-19.136C227.456,230.048,235.144,220.088,241.8,209.848z M268.792,205.448l-18.76-9.384 c5.192-9.608,9.424-19.432,12.424-29.432l8.624-2.152l14.48,7.24C282.336,178.664,276.64,190.544,268.792,205.448z M143.288,157.36 L166.424,144H200c4.416,0,8-3.584,8-8s-3.584-8-8-8h-35.72H160H74.536c3.928-16.384,19.336-32,39.024-32h59.12l33.56,15.28 c1.08,0.488,2.2,0.72,3.312,0.72c3.04,0,5.944-1.736,7.288-4.68c1.832-4.024,0.056-8.768-3.968-10.6l-34.784-15.84l-75.184-43.408 c12.336-13.928,33.24-17.76,50.12-8.016l83.152,45.216c2.472,1.344,5.48,1.296,7.912-0.152c2.424-1.44,3.912-4.048,3.912-6.872V56 c0-19.32,13.768-35.48,32-39.192V66.72c0,2.856,1.52,5.504,4,6.928s5.52,1.432,8,0l76.704-44.288 c16.728-9.656,37.608-5.824,49.944,8.112L343.464,80.88L308.68,96.72c-4.016,1.832-5.8,6.576-3.968,10.6 c1.352,2.944,4.256,4.68,7.288,4.68c1.112,0,2.24-0.232,3.312-0.72L348.88,96H408c19.32,0,35.48,13.768,39.192,32H360h-2.72H320 c-4.416,0-8,3.584-8,8s3.584,8,8,8h35.136l23.144,13.36c20,11.544,37.392,37.944,42.496,62.4 c-31.792-16.168-112.104-57.096-137.544-70.808c-6.984-3.768-15.352-3.824-22-0.368l-160.6,72.024 C105.488,195.92,123.056,169.032,143.288,157.36z M208.136,251.448l21.176,21.176c-8.152,12.448-17.088,25.216-26.672,37.872 l-24.704-30.888C188.504,270.656,198.664,261.24,208.136,251.448z M16,381.136c6.864-3.2,20.368-9.704,37.64-18.952l38.6,51.472 C77.72,421.752,62.632,428.08,47.024,432H16V381.136z M16,464v-16h32h188.4c22.48,0,44.36,5.504,64.016,16H16z"/> <path d="M416,320c0-26.472-21.528-48-48-48s-48,21.528-48,48s21.528,48,48,48S416,346.472,416,320z M368,352 c-17.648,0-32-14.352-32-32s14.352-32,32-32s32,14.352,32,32S385.648,352,368,352z"/> <path d="M472,408h-8.288c-1.944-13.552-13.632-24-27.712-24s-25.768,10.448-27.712,24H384c-4.416,0-8,3.584-8,8s3.584,8,8,8h32 c4.416,0,8-3.584,8-8v-4c0-6.616,5.384-12,12-12s12,5.384,12,12v4c0,4.416,3.584,8,8,8h16c4.416,0,8-3.584,8-8S476.416,408,472,408z "/> <path d="M352,408h-8c-4.416,0-8,3.584-8,8s3.584,8,8,8h8c4.416,0,8-3.584,8-8S356.416,408,352,408z"/> <path d="M416,440h-8c-4.416,0-8,3.584-8,8s3.584,8,8,8h8c4.416,0,8-3.584,8-8S420.416,440,416,440z"/> <path d="M272,384h32c4.416,0,8-3.584,8-8s-3.584-8-8-8h-24c0-13.232-10.768-24-24-24s-24,10.768-24,24v8c0,4.416,3.584,8,8,8 c4.416,0,8-3.584,8-8v-8c0-4.408,3.592-8,8-8s8,3.592,8,8v8C264,380.416,267.584,384,272,384z"/> </g>
</svg>